<?xml version="1.0" encoding="UTF-8" standalone="no"?>
<svg width="281px" height="41px" viewBox="0 0 281 41" version="1.1" xmlns="http://www.w3.org/2000/svg" xmlns:xlink="http://www.w3.org/1999/xlink">
    <!-- Generator: Sketch 40.3 (33839) - http://www.bohemiancoding.com/sketch -->
    <title>Logo</title>
    <desc>Created with Sketch.</desc>
    <defs></defs>
    <g id="Desktop---Light" stroke="none" stroke-width="1" fill="none" fill-rule="evenodd">
        <g id="Theme-Marketer---Light---About" transform="translate(-214.000000, -45.000000)">
            <g id="Logo" transform="translate(215.000000, 45.000000)">
                <path d="M29.7113,7.501 C30.0313,7.582 30.2913,7.747 30.4913,7.996 C30.6903,8.247 30.7913,8.542 30.7913,8.881 L30.7313,31.381 C30.7313,31.781 30.5963,32.116 30.3263,32.386 C30.0563,32.656 29.7213,32.791 29.3213,32.791 C28.9203,32.791 28.5863,32.651 28.3163,32.371 C28.0463,32.091 27.9113,31.751 27.9113,31.351 L27.9413,14.881 L21.4143,27.931 L21.3543,27.991 L21.3543,28.021 L21.3243,28.051 L21.3243,28.081 C21.3033,28.081 21.2943,28.091 21.2943,28.111 C21.2943,28.131 21.2833,28.141 21.2643,28.141 L21.2333,28.171 L21.2333,28.201 L21.2043,28.231 L21.1743,28.261 L21.1443,28.291 L21.1443,28.321 L21.1143,28.321 C21.1143,28.341 21.1043,28.351 21.0843,28.351 L21.0543,28.381 L21.0243,28.411 L20.9943,28.411 C20.9943,28.431 20.9843,28.441 20.9643,28.441 L20.9643,28.471 C20.9443,28.471 20.9243,28.481 20.9043,28.501 C20.8843,28.501 20.8643,28.512 20.8443,28.531 C20.7643,28.571 20.7153,28.591 20.6953,28.591 L20.6953,28.621 L20.6353,28.621 L20.6053,28.651 L20.5753,28.651 C20.5553,28.651 20.5353,28.662 20.5153,28.681 L20.4563,28.681 C20.4153,28.681 20.3963,28.691 20.3963,28.711 L20.3653,28.711 L20.3363,28.711 L20.3053,28.711 L20.2753,28.711 L20.2463,28.711 L20.1863,28.711 L20.1563,28.711 L20.1263,28.711 L20.0963,28.711 L20.0663,28.711 L20.0363,28.711 L20.0063,28.711 L19.9463,28.711 L19.8863,28.711 C19.8463,28.691 19.8123,28.681 19.7813,28.681 C19.7523,28.681 19.7173,28.671 19.6773,28.651 L19.6173,28.621 C19.5973,28.621 19.5773,28.611 19.5573,28.591 C19.5173,28.591 19.4773,28.571 19.4383,28.531 C19.4173,28.531 19.4073,28.526 19.4073,28.516 C19.4073,28.506 19.3973,28.501 19.3783,28.501 C19.3573,28.481 19.3373,28.471 19.3173,28.471 L19.2873,28.441 L19.2583,28.411 C19.2383,28.392 19.2173,28.381 19.1983,28.381 L19.1983,28.351 C19.1783,28.351 19.1683,28.341 19.1683,28.321 L19.1383,28.321 C19.1383,28.301 19.1283,28.291 19.1083,28.291 C19.1083,28.272 19.0983,28.261 19.0783,28.261 L19.0783,28.231 C19.0583,28.231 19.0483,28.221 19.0483,28.201 L19.0183,28.171 L18.9883,28.141 L18.9883,28.111 C18.9683,28.111 18.9583,28.102 18.9583,28.081 L18.9583,28.051 C18.9383,28.051 18.9283,28.046 18.9283,28.036 C18.9283,28.026 18.9183,28.021 18.8983,28.021 L18.8983,27.991 L18.8683,27.931 L12.3113,14.881 L12.3413,31.351 C12.3413,31.751 12.2053,32.091 11.9323,32.371 C11.6593,32.651 11.3203,32.791 10.9163,32.791 C10.5123,32.791 10.1733,32.656 9.9003,32.386 C9.6283,32.116 9.4913,31.781 9.4913,31.381 L9.4613,8.881 C9.4613,8.542 9.5623,8.247 9.7643,7.996 C9.9663,7.747 10.2293,7.582 10.5533,7.501 C10.8763,7.421 11.1853,7.452 11.4783,7.591 C11.7723,7.731 11.9993,7.951 12.1613,8.251 L20.1263,24.151 L28.1213,8.251 C28.2813,7.951 28.5063,7.731 28.7963,7.591 C29.0863,7.452 29.3913,7.421 29.7113,7.501" id="Fill-1" fill="#4B4B4B"></path>
                <path d="M68.2016,22.0811 L64.1816,12.5411 L60.2216,22.0811 L68.2016,22.0811 Z M74.9516,30.8111 C75.1116,31.1711 75.1166,31.5311 74.9666,31.8911 C74.8166,32.2511 74.5616,32.5111 74.2016,32.6711 C73.8416,32.8311 73.4816,32.8361 73.1216,32.6861 C72.7616,32.5361 72.5016,32.2811 72.3416,31.9211 L69.4016,24.9011 L59.0516,24.9011 L56.1416,31.9211 C56.0406,32.2011 55.8716,32.4161 55.6316,32.5661 C55.3916,32.7161 55.1316,32.7911 54.8516,32.7911 C54.7506,32.7911 54.6606,32.7811 54.5816,32.7611 C54.5016,32.7411 54.4106,32.7111 54.3116,32.6711 C53.9516,32.5111 53.6916,32.2511 53.5316,31.8911 C53.3706,31.5311 53.3706,31.1711 53.5316,30.8111 L62.8616,8.3411 C62.9616,8.0611 63.1316,7.8461 63.3716,7.6961 C63.6116,7.5461 63.8706,7.4711 64.1516,7.4711 L64.1816,7.4711 C64.4616,7.4711 64.7216,7.5461 64.9616,7.6961 C65.2016,7.8461 65.3706,8.0611 65.4716,8.3411 L74.9516,30.8111 Z" id="Fill-3" fill="#4B4B4B"></path>
                <path d="M106.6615,14.5811 C106.6615,14.0211 106.5515,13.4971 106.3315,13.0061 C106.1115,12.5161 105.8165,12.0861 105.4465,11.7161 C105.0765,11.3461 104.6365,11.0561 104.1265,10.8461 C103.6165,10.6361 103.0715,10.5311 102.4915,10.5311 L95.8615,10.5311 L95.8615,18.7511 L102.4915,18.7511 C103.0515,18.7511 103.5865,18.6421 104.0965,18.4211 C104.6065,18.2011 105.0515,17.9011 105.4315,17.5211 C105.8105,17.1421 106.1115,16.7011 106.3315,16.2011 C106.5515,15.7021 106.6615,15.1711 106.6615,14.6111 L106.6615,14.5811 Z M109.4815,14.6261 C109.4815,15.5641 109.3015,16.4531 108.9425,17.2901 C108.5825,18.1291 108.0635,18.8771 107.3855,19.5361 C106.7865,20.1341 106.1175,20.6031 105.3785,20.9421 C104.6405,21.2821 103.8505,21.4921 103.0135,21.5711 L108.2035,30.4211 C108.4225,30.7621 108.4825,31.1161 108.3835,31.4861 C108.2825,31.8561 108.0625,32.1511 107.7235,32.3711 C107.4825,32.4911 107.2435,32.5511 107.0025,32.5511 C106.7635,32.5511 106.5335,32.4911 106.3125,32.3711 C106.0925,32.2511 105.9125,32.0811 105.7725,31.8611 L99.7515,21.5711 L95.8615,21.5711 L95.8615,31.0811 C95.8615,31.4811 95.7265,31.8211 95.4565,32.1011 C95.1865,32.3811 94.8505,32.5211 94.4515,32.5211 C94.0515,32.5211 93.7165,32.3811 93.4465,32.1021 C93.1765,31.8221 93.0415,31.4821 93.0415,31.0831 L93.0415,20.1761 L93.0415,9.1491 C93.0415,8.7501 93.1755,8.4111 93.4455,8.1311 C93.7145,7.8521 94.0495,7.7111 94.4495,7.7111 L102.4745,7.7111 C103.4325,7.7111 104.3405,7.8911 105.1995,8.2501 C106.0575,8.6091 106.8015,9.1031 107.4305,9.7321 C108.0585,10.3601 108.5575,11.0941 108.9275,11.9321 C109.2965,12.7701 109.4815,13.6591 109.4815,14.5961 L109.4815,14.6261 Z" id="Fill-5" fill="#4B4B4B"></path>
                <path d="M144.7607,31.5464 C144.7007,31.9364 144.5007,32.2404 144.1607,32.4614 C143.9007,32.6214 143.6397,32.7014 143.3807,32.7014 C142.8807,32.7014 142.4907,32.5014 142.2107,32.1014 L133.8107,19.9514 L131.5607,22.5314 L131.5607,31.3514 C131.5607,31.7514 131.4257,32.0864 131.1557,32.3564 C130.8857,32.6264 130.5507,32.7614 130.1507,32.7614 C129.7507,32.7614 129.4157,32.6264 129.1457,32.3564 C128.8757,32.0864 128.7407,31.7514 128.7407,31.3514 L128.7407,8.9714 C128.7407,8.5714 128.8757,8.2364 129.1457,7.9664 C129.4157,7.6964 129.7507,7.5614 130.1507,7.5614 C130.5507,7.5614 130.8857,7.6964 131.1557,7.9664 C131.4257,8.2364 131.5607,8.5714 131.5607,8.9714 L131.5607,18.2114 L140.4707,7.9514 C140.7307,7.6714 141.0557,7.5164 141.4457,7.4864 C141.8357,7.4564 142.1807,7.5714 142.4807,7.8314 C142.7807,8.0914 142.9457,8.4114 142.9757,8.7914 C143.0057,9.1714 142.8897,9.5114 142.6307,9.8114 L135.7307,17.7314 L144.5207,30.4814 C144.7407,30.8014 144.8207,31.1564 144.7607,31.5464" id="Fill-7" fill="#4B4B4B"></path>
                <path d="M165.9106,21.4214 L165.9106,28.5864 C165.9106,28.9274 166.0356,29.2334 166.2856,29.5044 C166.5356,29.7754 166.8306,29.9114 167.1706,29.9114 L175.9306,29.9114 C176.3306,29.9114 176.6656,30.0494 176.9356,30.3274 C177.2056,30.6044 177.3406,30.9404 177.3406,31.3364 C177.3406,31.7324 177.2056,32.0634 176.9356,32.3304 C176.6656,32.5974 176.3306,32.7314 175.9306,32.7314 L167.1706,32.7314 C166.6106,32.7314 166.0826,32.6214 165.5866,32.4014 C165.0896,32.1804 164.6586,31.8804 164.2926,31.5014 C163.9266,31.1214 163.6346,30.6764 163.4166,30.1664 C163.1996,29.6564 163.0906,29.1214 163.0906,28.5614 L163.0906,11.4614 C163.0906,10.3014 163.5056,9.3514 164.3376,8.6114 C164.7136,8.2514 165.1446,7.9814 165.6306,7.8014 C166.1176,7.6214 166.6306,7.5314 167.1706,7.5314 L175.9306,7.5314 C176.3306,7.5314 176.6656,7.6664 176.9356,7.9364 C177.2056,8.2064 177.3406,8.5414 177.3406,8.9414 C177.3406,9.3414 177.2056,9.6764 176.9356,9.9464 C176.6656,10.2164 176.3306,10.3514 175.9306,10.3514 L167.1706,10.3514 C166.8506,10.3514 166.5606,10.4464 166.3006,10.6374 C166.0406,10.8284 165.9106,11.1044 165.9106,11.4654 L165.9106,18.6014 L175.9306,18.6014 C176.3306,18.6014 176.6656,18.7344 176.9356,19.0024 C177.2056,19.2694 177.3406,19.6004 177.3406,19.9964 C177.3406,20.3924 177.2056,20.7294 176.9356,21.0054 C176.6656,21.2824 176.3306,21.4214 175.9306,21.4214 L165.9106,21.4214 Z" id="Fill-9" fill="#4B4B4B"></path>
                <path d="M212.995,7.9961 C213.265,8.2661 213.4,8.6011 213.4,9.0011 C213.4,9.4011 213.265,9.7361 212.995,10.0061 C212.725,10.2761 212.39,10.4111 211.99,10.4111 L205.3,10.4111 L205.3,31.2311 C205.3,31.6311 205.165,31.9711 204.895,32.2511 C204.625,32.5311 204.29,32.6711 203.89,32.6711 C203.49,32.6711 203.155,32.5311 202.885,32.2511 C202.615,31.9711 202.48,31.6311 202.48,31.2311 L202.48,10.4111 L195.79,10.4111 C195.39,10.4111 195.055,10.2761 194.785,10.0061 C194.515,9.7361 194.38,9.4011 194.38,9.0011 C194.38,8.6011 194.515,8.2661 194.785,7.9961 C195.055,7.7261 195.39,7.5911 195.79,7.5911 L211.99,7.5911 C212.39,7.5911 212.725,7.7261 212.995,7.9961" id="Fill-11" fill="#4B4B4B"></path>
                <path d="M231.9999,21.4214 L231.9999,28.5864 C231.9999,28.9274 232.1249,29.2334 232.3749,29.5044 C232.6249,29.7754 232.9199,29.9114 233.2599,29.9114 L242.0209,29.9114 C242.4209,29.9114 242.7549,30.0494 243.0239,30.3274 C243.2959,30.6044 243.4309,30.9404 243.4309,31.3364 C243.4309,31.7324 243.2959,32.0634 243.0239,32.3304 C242.7549,32.5974 242.4209,32.7314 242.0209,32.7314 L233.2599,32.7314 C232.6999,32.7314 232.1719,32.6214 231.6759,32.4014 C231.1789,32.1804 230.7479,31.8804 230.3819,31.5014 C230.0159,31.1214 229.7239,30.6764 229.5059,30.1664 C229.2889,29.6564 229.1799,29.1214 229.1799,28.5614 L229.1799,11.4614 C229.1799,10.3014 229.5949,9.3514 230.4269,8.6114 C230.8029,8.2514 231.2339,7.9814 231.7199,7.8014 C232.2069,7.6214 232.7199,7.5314 233.2599,7.5314 L242.0209,7.5314 C242.4209,7.5314 242.7549,7.6664 243.0239,7.9364 C243.2959,8.2064 243.4309,8.5414 243.4309,8.9414 C243.4309,9.3414 243.2959,9.6764 243.0239,9.9464 C242.7549,10.2164 242.4209,10.3514 242.0209,10.3514 L233.2599,10.3514 C232.9399,10.3514 232.6499,10.4464 232.3899,10.6374 C232.1299,10.8284 231.9999,11.1044 231.9999,11.4654 L231.9999,18.6014 L242.0209,18.6014 C242.4209,18.6014 242.7549,18.7344 243.0239,19.0024 C243.2959,19.2694 243.4309,19.6004 243.4309,19.9964 C243.4309,20.3924 243.2959,20.7294 243.0239,21.0054 C242.7549,21.2824 242.4209,21.4214 242.0209,21.4214 L231.9999,21.4214 Z" id="Fill-13" fill="#4B4B4B"></path>
                <path d="M276.3095,14.5811 C276.3095,14.0211 276.1995,13.4971 275.9795,13.0061 C275.7585,12.5161 275.4635,12.0861 275.0945,11.7161 C274.7235,11.3461 274.2845,11.0561 273.7745,10.8461 C273.2645,10.6361 272.7185,10.5311 272.1395,10.5311 L265.5095,10.5311 L265.5095,18.7511 L272.1395,18.7511 C272.6995,18.7511 273.2345,18.6421 273.7445,18.4211 C274.2535,18.2011 274.6995,17.9011 275.0795,17.5211 C275.4585,17.1421 275.7585,16.7011 275.9795,16.2011 C276.1995,15.7021 276.3095,15.1711 276.3095,14.6111 L276.3095,14.5811 Z M279.1285,14.6261 C279.1285,15.5641 278.9495,16.4531 278.5895,17.2901 C278.2305,18.1291 277.7115,18.8771 277.0335,19.5361 C276.4335,20.1341 275.7655,20.6031 275.0275,20.9421 C274.2885,21.2821 273.4985,21.4921 272.6615,21.5711 L277.8515,30.4211 C278.0715,30.7621 278.1305,31.1161 278.0315,31.4861 C277.9305,31.8561 277.7105,32.1511 277.3715,32.3711 C277.1305,32.4911 276.8905,32.5511 276.6515,32.5511 C276.4115,32.5511 276.1805,32.4911 275.9605,32.3711 C275.7415,32.2511 275.5605,32.0811 275.4205,31.8611 L269.3995,21.5711 L265.5095,21.5711 L265.5095,31.0811 C265.5095,31.4811 265.3735,31.8211 265.1045,32.1011 C264.8335,32.3811 264.4985,32.5211 264.0995,32.5211 C263.6995,32.5211 263.3645,32.3811 263.0945,32.1021 C262.8245,31.8221 262.6895,31.4821 262.6895,31.0831 L262.6895,20.1761 L262.6895,9.1491 C262.6895,8.7501 262.8245,8.4111 263.0935,8.1311 C263.3635,7.8521 263.6975,7.7111 264.0965,7.7111 L272.1225,7.7111 C273.0805,7.7111 273.9885,7.8911 274.8475,8.2501 C275.7055,8.6091 276.4495,9.1031 277.0785,9.7321 C277.7065,10.3601 278.2055,11.0941 278.5755,11.9321 C278.9445,12.7701 279.1285,13.6591 279.1285,14.5961 L279.1285,14.6261 Z" id="Fill-15" fill="#4B4B4B"></path>
                <path d="M39.8778,20.1264 C39.8778,31.0344 31.0348,39.8774 20.1268,39.8774 C9.2178,39.8774 0.3748,31.0344 0.3748,20.1264 C0.3748,9.2184 9.2178,0.3754 20.1268,0.3754 C31.0348,0.3754 39.8778,9.2184 39.8778,20.1264 L39.8778,20.1264 Z" id="Stroke-17" stroke="#4B4B4B" stroke-width="0.75"></path>
            </g>
        </g>
    </g>
</svg>